 <svg
          xmlns="http://www.w3.org/2000/svg"
          width="24"
          height="24"
          viewBox="0 0 24 24"
          fill="none"
        >
          <path
            d="M20.4235 15.5625C20.3438 15.4734 20.2735 15.3937 20.2219 15.3328C20.0625 15.1453 19.8422 15.0281 19.5985 15.0047C19.35 14.9812 19.1063 15.0516 18.9141 15.2109C18.8672 15.2484 18.825 15.2906 18.7875 15.3375C18.7313 15.4031 18.6563 15.4875 18.5672 15.5859C17.8453 16.3922 16.5 17.9016 16.5 19.4625C16.5 21.1406 17.8453 22.5047 19.5 22.5047C21.1547 22.5047 22.5 21.1406 22.5 19.4625C22.5 17.8875 21.15 16.3734 20.4235 15.5625ZM19.5 21C18.675 21 18 20.3062 18 19.4578C18 18.5672 18.9188 17.4516 19.5047 16.7859C20.0906 17.4516 21 18.5672 21 19.4578C21 20.3062 20.325 21 19.5 21Z"
            fill="#373737"
          />
          <path
            d="M17.911 14.7703H17.925C18.2063 14.7703 18.4734 14.6625 18.6703 14.4609C18.8719 14.2594 18.9797 13.9969 18.9797 13.7156C18.9797 13.4344 18.8672 13.1578 18.6656 12.9609L7.82345 2.20781C6.87658 1.25625 5.3297 1.25156 4.37814 2.20312L4.13439 2.44687C3.18283 3.39375 3.17814 4.94062 4.1297 5.89219L6.0797 7.84219L2.10939 11.8078C1.72033 12.1969 1.5047 12.7125 1.50001 13.2656C1.49533 13.8187 1.71095 14.3344 2.10001 14.7234C2.10939 14.7328 2.11876 14.7422 2.13283 14.7562L8.28283 20.6625C8.68595 21.0469 9.19689 21.2391 9.71251 21.2391C10.2281 21.2391 10.7485 21.0422 11.1469 20.6578L11.8078 20.0203C13.7625 18.1312 16.7063 15.2812 17.0906 14.8969C17.1141 14.8734 17.3063 14.7703 17.911 14.7703ZM5.18908 4.8375C4.82345 4.46719 4.82345 3.87656 5.18908 3.51094L5.43283 3.26719C5.79845 2.90156 6.39376 2.90156 6.75939 3.27187L8.71408 5.2125L7.13439 6.79219L5.18908 4.8375ZM16.036 13.8234C15.6891 14.1703 12.6094 17.1516 10.7672 18.9375L10.1063 19.575C9.88595 19.7859 9.54376 19.7859 9.32345 19.5797L3.17345 13.6734L3.16408 13.6641C3.05626 13.5562 3.00001 13.4156 3.00001 13.2656C3.00001 13.1156 3.06095 12.975 3.16876 12.8672L7.13908 8.90625L9.78283 6.2625L16.9406 13.3641C16.5563 13.4531 16.2563 13.6031 16.036 13.8234Z"
            fill="#373737"
          />
        </svg>