<svg width="16" height="16" viewBox="0 0 16 16" fill="none" xmlns="http://www.w3.org/2000/svg">
<path d="M1.7176 12.8273H0.5L4.02169 3H5.22056L8.74225 12.8273H7.52464L4.65859 4.5547H4.58366L1.7176 12.8273ZM2.16718 8.98848H7.07507V10.0441H2.16718V8.98848ZM12.2031 13C11.7472 13 11.3336 12.912 10.962 12.7361C10.5905 12.5569 10.2955 12.2994 10.0769 11.9635C9.85839 11.6244 9.74912 11.215 9.74912 10.7351C9.74912 10.3129 9.8303 9.97057 9.99264 9.70825C10.155 9.44274 10.372 9.23481 10.6436 9.08446C10.9152 8.9341 11.2149 8.82213 11.5427 8.74856C11.8737 8.67179 12.2062 8.611 12.5403 8.56622C12.9773 8.50863 13.3317 8.46545 13.6033 8.43666C13.878 8.40467 14.0778 8.35189 14.2028 8.27831C14.3307 8.20474 14.3948 8.07677 14.3948 7.89444V7.85605C14.3948 7.38259 14.2683 7.01472 14.0154 6.75239C13.7656 6.49008 13.3864 6.35892 12.8774 6.35892C12.3498 6.35892 11.9362 6.47729 11.6364 6.71401C11.3367 6.95074 11.1259 7.20345 11.0042 7.47217L9.95517 7.08829C10.1425 6.64043 10.3923 6.29174 10.7045 6.04222C11.0198 5.78951 11.3633 5.61356 11.7347 5.51439C12.1094 5.41203 12.4778 5.36085 12.84 5.36085C13.071 5.36085 13.3364 5.38964 13.636 5.44721C13.9389 5.5016 14.2308 5.61516 14.5118 5.78791C14.7959 5.96065 15.0316 6.22137 15.219 6.57006C15.4063 6.91874 15.5 7.38579 15.5 7.97121V12.8273H14.3948V11.8292H14.3385C14.2637 11.9891 14.1387 12.1603 13.9639 12.3426C13.789 12.5249 13.5565 12.6801 13.2661 12.8081C12.9758 12.936 12.6214 13 12.2031 13ZM12.3717 11.9827C12.8087 11.9827 13.1771 11.8948 13.4769 11.7188C13.7797 11.5429 14.0076 11.3157 14.1606 11.0374C14.3167 10.7591 14.3948 10.4664 14.3948 10.1593V9.12284C14.348 9.18042 14.2449 9.23321 14.0856 9.28119C13.9296 9.32597 13.7485 9.36597 13.5424 9.40115C13.3395 9.43315 13.1413 9.46193 12.9476 9.48752C12.7572 9.50992 12.6027 9.52911 12.484 9.54511C12.1968 9.58349 11.9284 9.64588 11.6786 9.73224C11.432 9.81541 11.2321 9.94178 11.0791 10.1113C10.9293 10.2777 10.8543 10.5048 10.8543 10.7927C10.8543 11.1862 10.9964 11.4837 11.2805 11.6852C11.5677 11.8836 11.9314 11.9827 12.3717 11.9827Z" fill="black"/>
</svg>
