<svg width="16" height="16" viewBox="0 0 16 16" fill="none" xmlns="http://www.w3.org/2000/svg">
<path d="M2.48148 12.8604H0.5L3.51921 3H5.90212L8.91706 12.8604H6.93557L4.74483 5.25326H4.67649L2.48148 12.8604ZM2.35764 8.98459H7.03806V10.6119H2.35764V8.98459ZM11.806 13C11.3876 13 11.0146 12.9182 10.6872 12.7545C10.3598 12.5875 10.1007 12.342 9.90994 12.0178C9.72204 11.6904 9.62809 11.2828 9.62809 10.7949C9.62809 10.384 9.69499 10.039 9.82879 9.75975C9.9626 9.4805 10.1448 9.25582 10.3754 9.0857C10.606 8.91558 10.8679 8.7872 11.1612 8.70053C11.4573 8.61387 11.7676 8.55288 12.0921 8.51757C12.4737 8.47264 12.7811 8.43092 13.0145 8.39239C13.248 8.35066 13.4174 8.28969 13.5227 8.20943C13.6281 8.12919 13.6807 8.01044 13.6807 7.85315V7.82426C13.6807 7.51934 13.5953 7.28342 13.4245 7.11651C13.2565 6.94961 13.0174 6.86615 12.7071 6.86615C12.3797 6.86615 12.1192 6.94801 11.9256 7.1117C11.732 7.27219 11.6039 7.4744 11.5413 7.71834L9.85869 7.56428C9.9441 7.11491 10.1121 6.72653 10.3626 6.39913C10.6131 6.06853 10.9363 5.81495 11.332 5.63842C11.7306 5.45867 12.1918 5.3688 12.7156 5.3688C13.0801 5.3688 13.4288 5.41695 13.7619 5.51324C14.0978 5.60954 14.3953 5.75879 14.6544 5.96101C14.9164 6.16321 15.1227 6.42321 15.2736 6.74098C15.4245 7.05553 15.5 7.43267 15.5 7.87242V12.8604H13.7747V11.8349H13.7234C13.6181 12.066 13.4772 12.2698 13.3006 12.4463C13.1241 12.6196 12.9121 12.7561 12.6644 12.8556C12.4166 12.9519 12.1305 13 11.806 13ZM12.3271 11.5845C12.5946 11.5845 12.8309 11.5251 13.0359 11.4064C13.2409 11.2844 13.4017 11.1207 13.5185 10.9153C13.6352 10.7098 13.6936 10.4771 13.6936 10.2171V9.43236C13.6366 9.47408 13.5584 9.5126 13.4587 9.5479C13.3619 9.58 13.2523 9.6105 13.1299 9.63939C13.0074 9.66506 12.885 9.68913 12.7626 9.71161C12.6402 9.73086 12.5292 9.74852 12.4295 9.76456C12.216 9.79987 12.0295 9.85604 11.8701 9.93308C11.7106 10.0101 11.5868 10.1144 11.4986 10.246C11.4103 10.3744 11.3662 10.5349 11.3662 10.7275C11.3662 11.0067 11.4558 11.2202 11.6352 11.3678C11.8174 11.5123 12.048 11.5845 12.3271 11.5845Z" fill="black"/>
</svg>
