<svg width="16" height="16" viewBox="0 0 16 16" fill="none" xmlns="http://www.w3.org/2000/svg">
<path d="M9.69531 5.98997C9.65838 5.61757 9.49988 5.32827 9.21982 5.12207C8.93975 4.91587 8.55966 4.81277 8.07955 4.81277C7.75332 4.81277 7.47787 4.85893 7.2532 4.95126C7.02853 5.04051 6.85618 5.16516 6.73615 5.3252C6.6192 5.48523 6.56073 5.66682 6.56073 5.86994C6.55457 6.03921 6.58996 6.18694 6.66691 6.31312C6.74692 6.43931 6.85618 6.54856 6.99467 6.64089C7.13317 6.73014 7.29321 6.80862 7.47479 6.87633C7.65637 6.94096 7.85026 6.99636 8.05647 7.04253L8.9059 7.24565C9.3183 7.33798 9.69685 7.46109 10.0415 7.61497C10.3862 7.76885 10.6848 7.95813 10.9371 8.1828C11.1895 8.40746 11.3849 8.67214 11.5234 8.97683C11.665 9.28152 11.7373 9.63083 11.7404 10.0248C11.7373 10.6034 11.5896 11.105 11.2972 11.5297C11.0079 11.9514 10.5894 12.2791 10.0415 12.513C9.49681 12.7439 8.83973 12.8593 8.07031 12.8593C7.30706 12.8593 6.64228 12.7423 6.076 12.5084C5.51279 12.2745 5.07268 11.9283 4.75568 11.4697C4.44176 11.0081 4.27711 10.4372 4.26172 9.75701H6.19602C6.21757 10.074 6.30836 10.3387 6.4684 10.551C6.63151 10.7603 6.84849 10.9188 7.11932 11.0265C7.39323 11.1312 7.70253 11.1835 8.04723 11.1835C8.38577 11.1835 8.67969 11.1343 8.92898 11.0358C9.18135 10.9373 9.37678 10.8003 9.51527 10.6249C9.65377 10.4495 9.72301 10.2479 9.72301 10.0201C9.72301 9.8078 9.65992 9.62929 9.53374 9.48464C9.41063 9.33999 9.22905 9.21689 8.98899 9.11532C8.75201 9.01376 8.46118 8.92143 8.11648 8.83834L7.087 8.57981C6.28989 8.38592 5.66051 8.08277 5.19887 7.67037C4.73722 7.25796 4.50793 6.70245 4.51101 6.00382C4.50793 5.43138 4.66027 4.93126 4.96804 4.50346C5.27888 4.07567 5.70514 3.74175 6.24681 3.50169C6.78847 3.26163 7.404 3.1416 8.0934 3.1416C8.7951 3.1416 9.40755 3.26163 9.93075 3.50169C10.457 3.74175 10.8664 4.07567 11.1587 4.50346C11.4511 4.93126 11.6019 5.42676 11.6111 5.98997H9.69531Z" fill="black"/>
</svg>
