<svg width="24" height="24" viewBox="0 0 24 24" fill="none" xmlns="http://www.w3.org/2000/svg">
<path d="M2.26741 18.7582H0.5L7.92309 5H9.6633L12.464 18.7582H10.6966L8.49411 7.17659H8.38535L2.26741 18.7582ZM3.81728 13.3839H10.9413L10.6966 14.8618H3.57256L3.81728 13.3839ZM17.4603 19C16.7986 19 16.2186 18.8768 15.7201 18.6305C15.2216 18.3797 14.8522 18.0192 14.612 17.5489C14.3719 17.0742 14.3061 16.501 14.4149 15.8292C14.5191 15.238 14.7208 14.7588 15.0199 14.3915C15.3189 14.0198 15.6815 13.7287 16.1076 13.5182C16.538 13.3033 17.0003 13.1443 17.4943 13.0413C17.9928 12.9338 18.4891 12.8509 18.9829 12.7927C19.6264 12.7121 20.1498 12.6494 20.5533 12.6046C20.9565 12.5598 21.2602 12.4859 21.4641 12.3829C21.6681 12.2799 21.7927 12.103 21.838 11.8522V11.7985C21.9468 11.1401 21.8584 10.6273 21.5729 10.2601C21.2874 9.88836 20.7775 9.70249 20.0434 9.70249C19.282 9.70249 18.6454 9.86821 18.1332 10.1996C17.6211 10.531 17.2427 10.8848 16.998 11.261L15.5841 10.7236C15.9557 10.0966 16.3998 9.60844 16.9165 9.25911C17.4331 8.90531 17.9746 8.65899 18.5411 8.52015C19.1075 8.37684 19.6537 8.30519 20.1793 8.30519C20.5147 8.30519 20.8932 8.3455 21.3146 8.4261C21.7361 8.50224 22.1303 8.66123 22.4973 8.90307C22.869 9.14492 23.1477 9.50991 23.3335 9.99808C23.5238 10.4862 23.5509 11.1401 23.415 11.9597L22.273 18.7582H20.6687L20.9134 17.3608H20.8319C20.6869 17.5848 20.4649 17.8244 20.1658 18.0797C19.8711 18.3349 19.4974 18.5521 19.0442 18.7313C18.5955 18.9104 18.0675 19 17.4603 19ZM17.9225 17.5758C18.557 17.5758 19.1122 17.4527 19.588 17.2063C20.0683 16.96 20.4536 16.642 20.7436 16.2524C21.0382 15.8628 21.2216 15.453 21.2942 15.023L21.5389 13.572C21.4573 13.6526 21.2965 13.7265 21.0562 13.7937C20.8161 13.8564 20.5442 13.9124 20.2406 13.9616C19.9415 14.0064 19.6491 14.0467 19.3636 14.0825C19.0826 14.1139 18.8561 14.1407 18.6838 14.1632C18.2579 14.2169 17.8523 14.3042 17.467 14.4251C17.0864 14.5416 16.7647 14.7185 16.5018 14.9559C16.2435 15.1887 16.0826 15.5067 16.0192 15.9098C15.924 16.4606 16.0577 16.8772 16.4203 17.1593C16.7829 17.437 17.2836 17.5758 17.9225 17.5758Z" fill="black"/>
</svg>
