<svg width="24" height="24" viewBox="0 0 24 24" fill="none" xmlns="http://www.w3.org/2000/svg">
<path d="M2.36699 18.7582H0.5L5.89992 5H7.73819L13.1381 18.7582H11.2711L6.87651 7.17658H6.76162L2.36699 18.7582ZM3.05634 13.3839H10.5818V14.8618H3.05634V13.3839ZM18.4448 19C17.7458 19 17.1115 18.8768 16.5418 18.6305C15.9721 18.3797 15.5197 18.0192 15.1846 17.5489C14.8495 17.0742 14.682 16.501 14.682 15.8292C14.682 15.238 14.8065 14.7588 15.0554 14.3915C15.3043 14.0198 15.637 13.7287 16.0535 13.5182C16.47 13.3077 16.9295 13.151 17.4322 13.048C17.9397 12.9405 18.4495 12.8554 18.9617 12.7927C19.6319 12.7121 20.1753 12.6516 20.5917 12.6113C21.013 12.5665 21.3193 12.4926 21.5109 12.3896C21.7071 12.2866 21.8053 12.1075 21.8053 11.8522V11.7985C21.8053 11.1356 21.6114 10.6206 21.2236 10.2534C20.8406 9.88612 20.2591 9.70249 19.4787 9.70249C18.6697 9.70249 18.0354 9.86821 17.5758 10.1996C17.1162 10.531 16.7931 10.8848 16.6064 11.261L14.9979 10.7236C15.2852 10.0966 15.6681 9.60844 16.1469 9.25911C16.6304 8.90531 17.157 8.65899 17.7266 8.52015C18.301 8.37684 18.866 8.30519 19.4213 8.30519C19.7755 8.30519 20.1824 8.34549 20.6419 8.4261C21.1063 8.50224 21.5539 8.66123 21.9848 8.90307C22.4204 9.14492 22.7818 9.50991 23.0691 9.99808C23.3563 10.4862 23.5 11.1401 23.5 11.9597V18.7582H21.8053V17.3608H21.719C21.6043 17.5848 21.4127 17.8244 21.1446 18.0796C20.8765 18.3349 20.5199 18.5521 20.0747 18.7313C19.6295 18.9104 19.0861 19 18.4448 19ZM18.7032 17.5758C19.3734 17.5758 19.9382 17.4527 20.3979 17.2063C20.8622 16.96 21.2117 16.642 21.4462 16.2524C21.6857 15.8628 21.8053 15.453 21.8053 15.023V13.572C21.7335 13.6526 21.5755 13.7265 21.3313 13.7937C21.092 13.8564 20.8143 13.9124 20.4984 13.9616C20.1873 14.0064 19.8833 14.0467 19.5864 14.0825C19.2944 14.1139 19.0574 14.1407 18.8755 14.1632C18.4351 14.2169 18.0235 14.3042 17.6405 14.4251C17.2623 14.5416 16.9558 14.7185 16.7213 14.9559C16.4915 15.1887 16.3766 15.5067 16.3766 15.9098C16.3766 16.4606 16.5944 16.8772 17.0301 17.1593C17.4704 17.437 18.0282 17.5758 18.7032 17.5758Z" fill="black"/>
</svg>
