<svg width="16" height="16" viewBox="0 0 16 16" fill="none" xmlns="http://www.w3.org/2000/svg">
<path d="M2.24308 12.8509H0.5L3.67365 3H5.68964L8.86769 12.8509H7.12461L4.71686 5.0202H4.64643L2.24308 12.8509ZM2.30031 8.98845H7.05417V10.4218H2.30031V8.98845ZM11.9302 13C11.5018 13 11.1159 12.9166 10.7725 12.7499C10.4321 12.5799 10.1622 12.3298 9.96262 11.9995C9.76601 11.6692 9.6677 11.262 9.6677 10.7778C9.6677 10.3609 9.73813 10.0162 9.87898 9.74363C10.0198 9.47106 10.2121 9.25301 10.4556 9.08946C10.6992 8.92593 10.9736 8.80247 11.2787 8.7191C11.5868 8.63251 11.9053 8.56999 12.2339 8.53151C12.6301 8.48661 12.9514 8.44653 13.1979 8.41126C13.4443 8.37278 13.6234 8.31505 13.7349 8.23809C13.8494 8.15793 13.9066 8.03447 13.9066 7.86773V7.83887C13.9066 7.47652 13.8083 7.19593 13.6117 6.99711C13.415 6.7983 13.1319 6.6989 12.7621 6.6989C12.3718 6.6989 12.0623 6.79189 11.8334 6.97788C11.6074 7.16386 11.4548 7.38352 11.3756 7.63684L9.88779 7.40597C10.0052 6.95703 10.1988 6.58185 10.4688 6.28043C10.7388 5.97579 11.0689 5.74812 11.4592 5.5974C11.8495 5.44348 12.2808 5.36653 12.7533 5.36653C13.079 5.36653 13.4033 5.40821 13.7261 5.49158C14.0489 5.57496 14.3438 5.71285 14.6108 5.90524C14.8779 6.09443 15.0921 6.35258 15.2535 6.67965C15.4179 7.00673 15.5 7.41559 15.5 7.90621V12.8509H13.9682V11.836H13.9154C13.8186 12.0412 13.6821 12.2336 13.506 12.4132C13.3329 12.5896 13.1142 12.7322 12.8502 12.8413C12.589 12.9471 12.2823 13 11.9302 13ZM12.344 11.7205C12.6639 11.7205 12.9411 11.6516 13.1759 11.5137C13.4107 11.3726 13.5911 11.1866 13.7172 10.9557C13.8464 10.7249 13.9109 10.4732 13.9109 10.2006V9.32997C13.861 9.37486 13.776 9.41655 13.6557 9.45503C13.5382 9.49351 13.4062 9.52718 13.2596 9.55604C13.1128 9.58489 12.9675 9.61055 12.8238 9.633C12.68 9.65544 12.5552 9.67469 12.4496 9.69071C12.2119 9.72599 11.9992 9.78371 11.8114 9.86388C11.6236 9.94405 11.4754 10.0563 11.3668 10.2006C11.2582 10.3417 11.2039 10.5245 11.2039 10.7489C11.2039 11.0696 11.311 11.3117 11.5252 11.4752C11.7395 11.6388 12.0124 11.7205 12.344 11.7205Z" fill="black"/>
</svg>
