<svg
          xmlns="http://www.w3.org/2000/svg"
          width="24"
          height="24"
          viewBox="0 0 24 24"
          fill="none"
        >
          <path
            fillRule="evenodd"
            clipRule="evenodd"
            d="M2.99989 6C2.99989 5.17157 3.67146 4.5 4.49989 4.5H19.4999C20.3283 4.5 20.9999 5.17157 20.9999 6V15.648L18.7826 13.7988L18.7818 13.7981C18.3501 13.4391 17.7997 13.2545 17.2389 13.2805C16.6782 13.3065 16.1475 13.5412 15.7509 13.9384L15.7506 13.9387L14.6297 15.0596L10.5305 10.968L10.5301 10.9677L10.53 10.9676C10.1244 10.5623 9.57943 10.3272 9.0063 10.3102C8.43297 10.2932 7.87479 10.4958 7.44586 10.8766L7.44545 10.877L2.99989 14.8296V6ZM13.569 16.1202L9.47037 12.0293L9.46993 12.0288C9.33472 11.8936 9.15298 11.8152 8.96187 11.8095C8.7708 11.8039 8.58478 11.8714 8.44182 11.9983L8.44173 11.9983L2.99989 16.8367V18C2.99989 18.8284 3.67146 19.5 4.49989 19.5H10.1893L13.569 16.1202ZM10.4917 21C10.4972 21.0001 10.5026 21.0001 10.5081 21H19.4999C21.1567 21 22.4999 19.6569 22.4999 18V17.2556C22.4999 17.2522 22.4999 17.2487 22.4999 17.2453V6C22.4999 4.34315 21.1567 3 19.4999 3H4.49989C2.84303 3 1.49989 4.34315 1.49989 6V16.4968C1.49988 16.4991 1.49988 16.5014 1.49989 16.5037V18C1.49989 19.6569 2.84303 21 4.49989 21H10.4917ZM20.9999 17.6011V18C20.9999 18.8284 20.3283 19.5 19.4999 19.5H12.3106L16.8118 14.9988L16.8123 14.9983C16.9445 14.8658 17.1215 14.7876 17.3084 14.7789C17.4952 14.7702 17.6785 14.8316 17.8224 14.9511L17.8227 14.9514L20.9999 17.6011ZM14.9999 8.25C14.9999 7.83579 15.3357 7.5 15.7499 7.5C16.1641 7.5 16.4999 7.83579 16.4999 8.25C16.4999 8.66421 16.1641 9 15.7499 9C15.3357 9 14.9999 8.66421 14.9999 8.25ZM15.7499 6C14.5072 6 13.4999 7.00736 13.4999 8.25C13.4999 9.49264 14.5072 10.5 15.7499 10.5C16.9925 10.5 17.9999 9.49264 17.9999 8.25C17.9999 7.00736 16.9925 6 15.7499 6Z"
            fill="#373737"
          />
        </svg>