 <svg
          xmlns="http://www.w3.org/2000/svg"
          width="24"
          height="24"
          viewBox="0 0 24 24"
          fill="none"
        >
          <path
            d="M4.41562 22.5C2.80781 22.5 1.5 21.1922 1.5 19.5844V4.41562C1.5 2.80781 2.80781 1.5 4.41562 1.5H16.7953C17.3953 1.5 17.9625 1.73437 18.3844 2.16094L21.8391 5.61563C22.2656 6.04219 22.5 6.60469 22.5 7.20469V19.5844C22.4953 21.1875 21.1875 22.4953 19.5844 22.5H4.41562ZM4.41562 3C4.03594 3 3.67969 3.14531 3.4125 3.4125C3.14531 3.67969 3 4.03594 3 4.41562V19.5844C3 20.3672 3.63281 21 4.41562 21H19.5844C20.3625 21 21 20.3625 21 19.5797V7.20469C21 7.00312 20.9203 6.81562 20.7797 6.675L17.325 3.22031C17.1844 3.07969 16.9969 3 16.7953 3H4.41562ZM12.0094 20.25H12C9.93281 20.25 8.25 18.5672 8.25 16.5C8.25 14.4328 9.93281 12.75 12 12.75C14.0672 12.75 15.75 14.4328 15.75 16.5C15.75 17.4984 15.3609 18.4406 14.6578 19.1484C13.95 19.8563 13.0078 20.25 12.0094 20.25ZM12 14.25C10.7578 14.25 9.75 15.2578 9.75 16.5C9.75 17.7422 10.7578 18.75 12 18.75H12.0094C12.6094 18.75 13.1719 18.5156 13.5938 18.0891C14.0156 17.6625 14.25 17.1 14.25 16.5C14.25 15.2578 13.2422 14.25 12 14.25ZM14.25 9.75H5.25C4.425 9.75 3.75 9.075 3.75 8.25V5.25C3.75 4.425 4.425 3.75 5.25 3.75H14.25C15.075 3.75 15.75 4.425 15.75 5.25V8.25C15.75 9.075 15.075 9.75 14.25 9.75ZM5.25 5.25V8.25H14.25V5.25H5.25Z"
            fill="#373737"
          />
        </svg>