<svg
          xmlns="http://www.w3.org/2000/svg"
          width="24"
          height="24"
          viewBox="0 0 24 24"
          fill="none"
        >
          <path
            fillRule="evenodd"
            clipRule="evenodd"
            d="M7.12496 3.72656C7.43759 3.72656 7.71743 3.92049 7.82721 4.21322L11.4774 13.947C11.4817 13.9578 11.4858 13.9686 11.4896 13.9796L13.4522 19.2132C13.5976 19.6011 13.4011 20.0334 13.0133 20.1788C12.6255 20.3242 12.1932 20.1277 12.0477 19.7399L10.2615 14.9766H3.98846L2.20221 19.7399C2.05677 20.1277 1.62446 20.3242 1.23662 20.1788C0.848776 20.0334 0.652272 19.6011 0.797712 19.2132L2.76032 13.9796C2.76414 13.9686 2.76822 13.9578 2.77253 13.947L6.42271 4.21322C6.53248 3.92049 6.81233 3.72656 7.12496 3.72656ZM4.55096 13.4766H9.69896L7.12496 6.61256L4.55096 13.4766ZM18.75 9.72656C17.4981 9.72656 16.423 10.4572 15.9715 11.5199C15.8095 11.9011 15.3691 12.0788 14.9879 11.9168C14.6067 11.7549 14.429 11.3145 14.5909 10.9333C15.2823 9.3062 16.908 8.22656 18.75 8.22656C20.005 8.22656 21.1375 8.66555 21.9592 9.47281C22.7829 10.282 23.25 11.4181 23.25 12.7266V19.4766C23.25 19.8908 22.9142 20.2266 22.5 20.2266C22.0857 20.2266 21.75 19.8908 21.75 19.4766V18.8494C21.7044 18.8947 21.6579 18.939 21.6105 18.9822C20.571 19.9291 19.1918 20.2734 17.8125 20.2734C16.8713 20.2734 15.9796 19.9601 15.3156 19.3485C14.6442 18.7302 14.25 17.8465 14.25 16.8047C14.25 15.6211 14.8033 14.7689 15.5841 14.2157C16.331 13.6865 17.2665 13.4392 18.0997 13.3411L18.0998 13.3411C19.3712 13.1915 20.7512 13.1297 21.75 13.1096V12.7266C21.75 11.785 21.4202 11.0461 20.9079 10.5428C20.3937 10.0376 19.6512 9.72656 18.75 9.72656ZM21.7498 14.6099C20.7881 14.6299 19.4735 14.6898 18.2752 14.8308C17.5723 14.9136 16.9141 15.1117 16.4513 15.4396C16.0223 15.7435 15.75 16.1602 15.75 16.8047C15.75 17.4504 15.9853 17.9261 16.3318 18.2452C16.6857 18.5712 17.2002 18.7734 17.8125 18.7734C18.9644 18.7734 19.9289 18.4849 20.6004 17.8733C21.2513 17.2803 21.7393 16.2805 21.7498 14.6099Z"
            fill="#373737"
          />
        </svg>