 <svg
          xmlns="http://www.w3.org/2000/svg"
          width="24"
          height="24"
          viewBox="0 0 24 24"
          fill="none"
        >
          <path
            fillRule="evenodd"
            clipRule="evenodd"
            d="M11.545 3.43513C11.821 3.55321 12 3.82448 12 4.12465V7.89159C15.7294 8.06301 18.1905 9.52385 19.7041 11.7295C21.2811 14.0275 21.75 17.0214 21.75 19.8747C21.75 20.1948 21.5468 20.4796 21.2441 20.5838C20.9414 20.688 20.606 20.5886 20.4089 20.3363C19.2917 18.9059 18.2986 17.8826 16.9722 17.1968C15.7746 16.5777 14.2432 16.2026 12 16.1355V19.8747C12 20.1748 11.821 20.4461 11.545 20.5642C11.2691 20.6823 10.9493 20.6244 10.7321 20.4172L2.48214 12.5422C2.33388 12.4006 2.25 12.2046 2.25 11.9997C2.25 11.7947 2.33388 11.5987 2.48214 11.4571L10.7321 3.58214C10.9493 3.37487 11.2691 3.31704 11.545 3.43513ZM4.08621 11.9997L10.5 18.1219V15.3747C10.5 14.9604 10.8358 14.6247 11.25 14.6247C14.0468 14.6247 16.0463 15.0295 17.6611 15.8644C18.6191 16.3597 19.4149 16.9929 20.1462 17.7366C19.9468 15.796 19.4412 13.9974 18.4673 12.5782C17.1788 10.7006 14.9926 9.37465 11.25 9.37465C10.8358 9.37465 10.5 9.03887 10.5 8.62465V5.8774L4.08621 11.9997Z"
            fill="#373737"
          />
        </svg>